    Pocahontas-2(1998)1080p BDRip In[Hindi-Eng(Dts)-Cantonese-Mandarin]-DGrea8


Summary:-


Pocahontas sets off on a journey to England with Meeko, Flit, and Percy.
Hearing rumors of John Smith's death, Pocahontas tries to prevent war and battle.


Cast:-

Irene Bedard..............Pocahontas (voice)
Jim Cummings..............King James (voice)
Donal Gibson..............John Smith (voice)
Finola Hughes.............Additional voices (voice)
Linda Hunt................Grandmother Willow (voice)
Russell Means.............owhatan (voice)
David Ogden Stiers........Ratcliffe (voice)
Jean Stapleton............Mrs. Jenkins (voice)
Billy Zane................John Rolfe (voice)
Jeff Bennett..............Additional voices (voice)
Brad Garrett..............Additional voices (voice)
Rob Paulsen...............Additional voices (voice)
Gregg Rainwater...........Additional voices (voice)
William Morgan Sheppard...Additional voices (voice) (as Morgan Sheppard)
Kath Soucie...............Additional voices (voice)


Directors: Tom Ellery, Bradley Raymond
Writers: Allen Estrin (screenplay), Cindy Marcus (screenplay)
Stars: Irene Bedard, Donal Gibson, Jim Cummings

Video & Audio Info.:-

Video

Duration : 1h 10mn
Bit rate : 2 252 Kbps
Width : 1 920 pixels
Height : 1 072 pixels
Display aspect ratio : 16:9
Frame rate : 25.000 fps
Original frame rate : 23.976 fps
Color space : YUV
Chroma subsampling : 4:2:0
Bit depth : 8 bits
Scan type : Progressive
Bits/(Pixel*Frame) : 0.044
Stream size : 1.13 GiB (58%)

Audio #1
ID : 2
Format : DTS
Format/Info : Digital Theater Systems
Muxing mode : Header stripping
Codec ID : A_DTS
Duration : 1h 10mn
Bit rate mode : Constant
Bit rate : 755 Kbps
Channel(s) : 6 channels
Channel positions : Front: L C R, Side: L R, LFE
Sampling rate : 48.0 KHz
Bit depth : 24 bits
Compression mode : Lossy
Stream size : 379 MiB (19%)
Title : Dts
Language : English

Audio #2
ID : 3
Format : MPEG Audio
Format version : Version 1
Format profile : Layer 2
Muxing mode : Header stripping
Codec ID : A_MPEG/L2
Codec ID/Hint : MP2
Duration : 1h 10mn
Bit rate mode : Constant
Bit rate : 224 Kbps
Channel(s) : 2 channels
Sampling rate : 48.0 KHz
Compression mode : Lossy
Stream size : 112 MiB (6%)
Title : Hin
Language : Hindi

Audio #3
ID : 4
Format : AC-3
Format/Info : Audio Coding 3
Format profile : Dolby Digital
Mode extension : CM (complete main)
Muxing mode : Header stripping
Codec ID : A_AC3
Duration : 1h 10mn
Bit rate mode : Constant
Bit rate : 320 Kbps
Channel(s) : 2 channels
Channel positions : Front: L R
Sampling rate : 48.0 KHz
Bit depth : 16 bits
Compression mode : Lossy
Stream size : 161 MiB (8%)
Title : Mandarin
Language : Chinese

Audio #4
ID : 5
Format : AC-3
Format/Info : Audio Coding 3
Format profile : Dolby Digital
Mode extension : CM (complete main)
Muxing mode : Header stripping
Codec ID : A_AC3
Duration : 1h 10mn
Bit rate mode : Constant
Bit rate : 320 Kbps
Channel(s) : 2 channels
Channel positions : Front: L R
Sampling rate : 48.0 KHz
Bit depth : 16 bits
Compression mode : Lossy
Stream size : 161 MiB (8%)
Title : Cantonese
Language : Chinese


Subtitle Languages : Chinese,English



Screen Shoots:-
    
http://www.shotpix.com/images/30592028775307726763.jpg
 
http://www.shotpix.com/images/37749844917993692696.jpg
 
http://www.shotpix.com/images/60314467535870194956.jpg
 
http://www.shotpix.com/images/17034578332128740506.jpg
 
http://www.shotpix.com/images/77165325938852628174.jpg


Note:--

 Check The Sample Video In This Torrent			